<?xml version="1.0" encoding="utf-8"?>
<!-- Generator: Adobe Illustrator 16.0.4, SVG Export Plug-In . SVG Version: 6.00 Build 0)  -->
<!DOCTYPE svg PUBLIC "-//W3C//DTD SVG 1.1//EN" "http://www.w3.org/Graphics/SVG/1.1/DTD/svg11.dtd">
<svg version="1.1" id="Layer_1" xmlns="http://www.w3.org/2000/svg" xmlns:xlink="http://www.w3.org/1999/xlink" x="0px" y="0px"
	 width="38px" height="38px" viewBox="0 0 38 38" enable-background="new 0 0 38 38" xml:space="preserve">
<path d="M12.267,35v-0.445c0.742-0.117,1.43-0.311,2.067-0.577c0.637-0.267,1.178-0.651,1.623-1.155
	c0.148-0.178,0.259-0.429,0.333-0.755c0.074-0.326,0.132-0.712,0.177-1.156c0.044-0.444,0.074-0.911,0.089-1.4
	c0.015-0.488,0.022-0.971,0.022-1.444c0-0.415,0.006-0.979,0.022-1.688c0.015-0.712,0.029-1.489,0.045-2.334
	c0.015-0.845,0.022-1.71,0.022-2.599c0-0.919,0-1.779,0-2.58V10.2c0-0.533,0-1.066,0-1.6c0-0.534-0.022-1.029-0.067-1.489
	c-0.044-0.459-0.11-0.874-0.199-1.244C16.312,5.497,16.178,5.208,16,5c-0.415-0.504-0.926-0.867-1.533-1.089
	c-0.607-0.223-1.296-0.378-2.067-0.467V3h13.29v0.444c-0.621,0.089-1.289,0.252-2,0.489s-1.26,0.711-1.645,1.422
	c-0.268,0.504-0.408,1.141-0.422,1.911c-0.016,0.771-0.037,1.496-0.066,2.177c0,0.742-0.008,1.475-0.021,2.201
	c-0.016,0.727-0.023,1.46-0.023,2.2c0,0.74,0,1.511,0,2.312c0,0.77,0,1.615,0,2.533v10.044c0,0.859,0.014,1.688,0.045,2.489
	c0.029,0.8,0.162,1.363,0.4,1.688c0.355,0.504,0.916,0.89,1.689,1.156c0.768,0.267,1.465,0.429,2.088,0.487V35H12.267z"/>
<path d="M2.875,31.63v-0.384c0.307-0.025,0.614-0.058,0.921-0.096c0.307-0.039,0.582-0.103,0.825-0.191
	c0.243-0.09,0.447-0.212,0.614-0.365c0.167-0.154,0.25-0.346,0.25-0.575V16.854c0-0.204-0.019-0.383-0.058-0.538
	c-0.038-0.153-0.147-0.293-0.326-0.421c-0.23-0.154-0.506-0.307-0.825-0.461c-0.32-0.153-0.659-0.294-1.017-0.422v-0.23l5.181-1.689
	h0.23v17.155c0.051,0.256,0.16,0.441,0.327,0.557c0.166,0.115,0.365,0.199,0.595,0.25s0.48,0.083,0.749,0.096
	c0.269,0.014,0.531,0.045,0.787,0.096v0.384H2.875z M8.382,8.507c-0.397,0.397-0.89,0.595-1.478,0.595
	c-0.562,0-1.049-0.205-1.458-0.614c-0.41-0.409-0.614-0.896-0.614-1.458c0-0.588,0.198-1.074,0.595-1.458
	c0.396-0.383,0.889-0.575,1.478-0.575s1.081,0.192,1.478,0.575c0.396,0.384,0.594,0.87,0.594,1.458
	C8.976,7.619,8.778,8.111,8.382,8.507z"/>
<path d="M26.875,31.63v-0.384c0.256-0.051,0.518-0.082,0.787-0.096c0.268-0.013,0.518-0.045,0.748-0.096s0.428-0.135,0.594-0.25
	c0.168-0.115,0.275-0.301,0.328-0.557V13.093h0.229l5.182,1.689v0.23c-0.357,0.128-0.697,0.269-1.018,0.422
	c-0.318,0.154-0.594,0.307-0.824,0.461c-0.18,0.128-0.289,0.269-0.326,0.421c-0.039,0.154-0.059,0.333-0.059,0.538v13.165
	c0,0.229,0.084,0.421,0.25,0.575c0.166,0.153,0.371,0.275,0.613,0.365c0.244,0.089,0.52,0.152,0.826,0.191
	c0.307,0.038,0.613,0.07,0.92,0.096v0.384H26.875z M29.023,7.029c0-0.588,0.199-1.074,0.596-1.458
	c0.396-0.383,0.889-0.575,1.477-0.575c0.59,0,1.082,0.192,1.479,0.575c0.396,0.384,0.594,0.87,0.594,1.458
	c0,0.563-0.203,1.049-0.613,1.458c-0.408,0.41-0.896,0.614-1.459,0.614c-0.588,0-1.08-0.198-1.477-0.595
	C29.223,8.111,29.023,7.619,29.023,7.029z"/>
</svg>
