<?xml version="1.0" encoding="utf-8"?>
<!-- Generator: Adobe Illustrator 16.0.4, SVG Export Plug-In . SVG Version: 6.00 Build 0)  -->
<!DOCTYPE svg PUBLIC "-//W3C//DTD SVG 1.1//EN" "http://www.w3.org/Graphics/SVG/1.1/DTD/svg11.dtd">
<svg version="1.1" id="Layer_1" xmlns="http://www.w3.org/2000/svg" xmlns:xlink="http://www.w3.org/1999/xlink" x="0px" y="0px"
	 width="64px" height="128px" viewBox="0 0 64 128" enable-background="new 0 0 64 128" xml:space="preserve">
<g>
	<path fill="#FFFFFF" d="M5.066,128v-1.777c2.961-0.473,5.717-1.244,8.268-2.31c2.546-1.068,4.71-2.609,6.488-4.625
		c0.593-0.709,1.036-1.717,1.334-3.022c0.294-1.304,0.533-2.842,0.711-4.621c0.178-1.78,0.294-3.646,0.354-5.599
		c0.06-1.959,0.089-3.883,0.089-5.778c0-1.659,0.028-3.911,0.09-6.756c0.058-2.846,0.117-5.956,0.177-9.335
		c0.06-3.378,0.089-6.845,0.089-10.399c0-3.672,0-7.11,0-10.311V28.8c0-2.134,0-4.267,0-6.401c0-2.133-0.089-4.116-0.266-5.956
		c-0.179-1.836-0.445-3.494-0.801-4.977C21.244,9.987,20.711,8.83,20,8c-1.661-2.014-3.705-3.466-6.134-4.354
		C11.437,2.755,8.68,2.133,5.6,1.777V0h53.156v1.777c-2.489,0.356-5.156,1.009-8.001,1.956c-2.844,0.95-5.037,2.845-6.578,5.689
		c-1.066,2.017-1.63,4.564-1.688,7.644c-0.061,3.084-0.148,5.987-0.265,8.712c0,2.963-0.031,5.896-0.089,8.8
		c-0.061,2.905-0.09,5.839-0.09,8.8c0,2.963,0,6.044,0,9.244c0,3.083,0,6.463,0,10.135v40.179c0,3.438,0.058,6.754,0.179,9.954
		c0.116,3.199,0.648,5.453,1.599,6.756c1.422,2.017,3.672,3.555,6.756,4.62c3.079,1.068,5.866,1.722,8.355,1.958V128H5.066z"/>
</g>
</svg>
